<svg class="logo" version="1.1" id="Layer_1" xmlns="http://www.w3.org/2000/svg" xmlns:xlink="http://www.w3.org/1999/xlink" x="0px" y="0px"
	 width="150px" height="40px" viewBox="0 0 150 40" enable-background="new 0 0 150 40" xml:space="preserve">

<g>
	<g>
		<path class="logo-fill" d="M48.234,34.132L10.26,39.185V1.016l37.975,6.385V34.132z M12.747,36.055l34.226-3.782V9.216L12.747,4.232
			V36.055z"/>
	</g>
	<g>
		<g>
			<path class="logo-fill" d="M37.827,27.373L26.25,28.329c-2.398,0.198-4.46-2.161-4.46-5.27v-2.771c0-4.455,2.924-7.743,6.248-7.36
				c1.53,0.176,2.937,1.127,3.928,2.598c0.581-0.535,1.271-0.787,1.969-0.718c1.207,0.119,2.261,1.156,2.77,2.658
				c0.257-0.086,0.517-0.12,0.775-0.103c1.59,0.104,2.83,2.057,2.83,4.356v1.966l-0.031-0.002c-0.164,1.738-1.041,3.183-2.214,3.598
				l0.001,0.057L37.827,27.373z M28.038,13.701c-2.967-0.312-5.556,2.639-5.556,6.601v2.748c0,2.627,1.734,4.638,3.768,4.49
				l11.419-0.829l0.134-0.031c1.142-0.261,2.001-1.667,2.075-3.348l0.008-0.234l0-1.376c0-1.955-1.057-3.604-2.405-3.679
				c-0.276-0.016-0.554,0.039-0.826,0.162l-0.21,0.095l-0.086-0.303c-0.398-1.403-1.34-2.378-2.423-2.474
				c-0.656-0.058-1.305,0.221-1.82,0.791l-0.202,0.223l-0.177-0.286C30.833,14.792,29.494,13.854,28.038,13.701z"/>
		</g>
	</g>
</g>
<g>
	<path class="logo-fill" d="M63.412,13.061v19.41h-2.122v-19.41h-5.212v-2.121H68.61v2.121H63.412z"/>
	<path class="logo-fill" d="M84.769,32.471h-2.137V30.88c-1.404,1.303-3.152,1.955-5.243,1.955c-2.081,0-3.859-0.738-5.333-2.213
		c-1.475-1.475-2.212-3.253-2.212-5.333c0-2.091,0.737-3.872,2.212-5.341c1.475-1.47,3.252-2.205,5.333-2.205
		c2.091,0,3.839,0.647,5.243,1.94v-0.803h2.137V32.471z M82.632,26.38v-2.182c-0.192-1.011-0.677-1.909-1.455-2.697
		c-1.05-1.051-2.313-1.576-3.788-1.576c-1.475,0-2.734,0.525-3.78,1.576c-1.045,1.051-1.568,2.313-1.568,3.788
		s0.52,2.732,1.56,3.773c1.041,1.04,2.303,1.56,3.788,1.56c1.475,0,2.738-0.525,3.788-1.575
		C81.955,28.269,82.439,27.38,82.632,26.38z"/>
	<path class="logo-fill" d="M100.647,18.879L95.04,32.471h-2.136l-5.546-13.591h2.394l4.229,10.046l4.271-10.046H100.647z"/>
	<path class="logo-fill" d="M105.677,10.939v21.531h-2.137V10.939H105.677z"/>
	<path class="logo-fill" d="M125.251,32.471h-2.136V30.88c-1.404,1.303-3.152,1.955-5.243,1.955c-2.08,0-3.858-0.738-5.333-2.213
		s-2.213-3.253-2.213-5.333c0-2.091,0.738-3.872,2.213-5.341c1.475-1.47,3.253-2.205,5.333-2.205c2.091,0,3.839,0.647,5.243,1.94
		v-0.803h2.136V32.471z M123.115,26.38v-2.182c-0.192-1.011-0.677-1.909-1.455-2.697c-1.051-1.051-2.313-1.576-3.788-1.576
		s-2.734,0.525-3.78,1.576s-1.568,2.313-1.568,3.788s0.521,2.732,1.561,3.773c1.041,1.04,2.304,1.56,3.788,1.56
		c1.475,0,2.737-0.525,3.788-1.575C122.438,28.269,122.923,27.38,123.115,26.38z"/>
	<path class="logo-fill" d="M131.479,22.289v10.182h-2.137V18.879h2.137V19c0.585-0.586,1.646-0.879,3.181-0.879
		c1.626,0,2.955,0.515,3.985,1.546c1.03,1.03,1.556,2.318,1.576,3.864v8.939H138.1v-8.818c0-0.939-0.341-1.74-1.022-2.401
		c-0.683-0.662-1.488-0.993-2.418-0.993s-1.732,0.323-2.408,0.969C131.877,21.602,131.619,21.955,131.479,22.289z"/>
</g>
</svg>
