<svg version="1.1" class="logo-fill" id="logo-svg" xmlns="http://www.w3.org/2000/svg" xmlns:xlink="http://www.w3.org/1999/xlink" x="0px" y="0px"
	 width="110px" height="35px" viewBox="0 0 110 35" enable-background="new 0 0 110 35" xml:space="preserve">
<g>
	<g>
		<path d="M32.254,28.918L0.27,33.174V1.026l31.984,5.378V28.918z M2.364,30.538l28.827-3.186V7.933L2.364,3.735V30.538z"/>
	</g>
	<g>
		<path d="M13.345,10.021c0.145,0,0.292,0.008,0.436,0.025c1.281,0.148,2.519,0.981,3.398,2.286l0.642,0.952l0.845-0.779
			c0.354-0.327,0.753-0.5,1.152-0.5c0.047,0,0.093,0.003,0.139,0.007c0.842,0.083,1.649,0.912,2.056,2.111l0.315,0.931l0.932-0.312
			c0.121-0.041,0.243-0.061,0.363-0.061c0.023,0,0.046,0.001,0.069,0.002c1.103,0.073,2.035,1.706,2.035,3.566v1.663l-0.028,0.296
			c-0.135,1.422-0.817,2.623-1.659,2.921l-0.151,0.054l-11.943,0.985c-0.071,0.007-0.142,0.01-0.212,0.01
			c-1.863,0-3.378-2.033-3.378-4.53v-2.894C8.354,13.042,10.593,10.021,13.345,10.021 M13.345,9.035
			c-3.239,0-5.977,3.313-5.977,7.719v2.894c0,3.12,1.988,5.517,4.365,5.517c0.097,0,0.195-0.004,0.294-0.013l12.093-0.998
			l0.251-0.035l-0.002-0.06c1.226-0.433,2.141-1.942,2.313-3.758l0.032,0.002V18.25c0-2.401-1.295-4.44-2.957-4.55
			c-0.045-0.002-0.089-0.004-0.134-0.004c-0.225,0-0.451,0.037-0.676,0.112c-0.532-1.569-1.633-2.652-2.893-2.776
			c-0.079-0.008-0.158-0.012-0.236-0.012c-0.647,0-1.281,0.263-1.821,0.761c-1.036-1.537-2.506-2.529-4.104-2.714
			C13.71,9.046,13.527,9.035,13.345,9.035L13.345,9.035z"/>
	</g>
</g>
<g>
	<path d="M45.038,11.171V27.52h-1.787V11.171h-4.39V9.385h10.554v1.787H45.038z"/>
	<path d="M63.025,27.52h-1.8v-1.34c-1.183,1.097-2.654,1.646-4.416,1.646c-1.752,0-3.25-0.621-4.492-1.863s-1.863-2.74-1.863-4.492
		c0-1.762,0.621-3.262,1.863-4.499c1.242-1.238,2.74-1.857,4.492-1.857c1.762,0,3.233,0.545,4.416,1.634v-0.676h1.8V27.52z
		 M61.226,22.389v-1.837c-0.161-0.852-0.57-1.608-1.225-2.271c-0.885-0.885-1.949-1.328-3.191-1.328s-2.303,0.443-3.184,1.328
		c-0.88,0.885-1.32,1.947-1.32,3.19c0,1.242,0.438,2.301,1.314,3.178c0.875,0.877,1.939,1.314,3.19,1.314
		c1.242,0,2.307-0.442,3.191-1.327C60.655,23.98,61.064,23.231,61.226,22.389z"/>
	<path d="M76.399,16.072L71.677,27.52h-1.8l-4.671-11.447h2.017l3.562,8.461l3.599-8.461H76.399z"/>
	<path d="M80.635,9.385V27.52h-1.8V9.385H80.635z"/>
	<path d="M97.122,27.52h-1.799v-1.34c-1.183,1.097-2.655,1.646-4.416,1.646c-1.753,0-3.25-0.621-4.492-1.863
		s-1.863-2.74-1.863-4.492c0-1.762,0.621-3.262,1.863-4.499c1.242-1.238,2.739-1.857,4.492-1.857c1.761,0,3.233,0.545,4.416,1.634
		v-0.676h1.799V27.52z M95.323,22.389v-1.837c-0.162-0.852-0.57-1.608-1.226-2.271c-0.885-0.885-1.948-1.328-3.19-1.328
		s-2.304,0.443-3.185,1.328c-0.88,0.885-1.321,1.947-1.321,3.19c0,1.242,0.439,2.301,1.315,3.178c0.877,0.877,1.94,1.314,3.19,1.314
		c1.242,0,2.306-0.442,3.19-1.327C94.753,23.98,95.161,23.231,95.323,22.389z"/>
	<path d="M102.367,18.943v8.576h-1.8V16.072h1.8v0.102c0.493-0.493,1.386-0.74,2.68-0.74c1.369,0,2.488,0.434,3.356,1.302
		c0.868,0.868,1.31,1.953,1.327,3.255v7.529h-1.787v-7.428c0-0.791-0.287-1.465-0.861-2.022c-0.575-0.557-1.253-0.836-2.035-0.836
		c-0.783,0-1.46,0.272-2.029,0.816C102.703,18.364,102.485,18.662,102.367,18.943z"/>
</g>
<g>
	<path d="M10.572,12.057c0.926-0.572,1.746-1.139,2.802-1.49c-0.099-0.171-0.2-0.343-0.3-0.515c-1.312,1.237-2.79,2.271-4.15,3.453
		c-0.224,0.194,0.014,0.634,0.3,0.515c2.048-0.854,3.911-2.064,5.959-2.918c-0.116-0.151-0.232-0.302-0.348-0.452
		c-1.428,1.941-3.933,3.039-5.787,4.54c-0.26,0.211,0.027,0.571,0.299,0.516c2.893-0.589,4.667-2.163,7.102-3.607
		c-0.125-0.161-0.249-0.323-0.374-0.484c-2.073,2.227-4.956,3.611-7.274,5.548c-0.243,0.203,0.017,0.598,0.3,0.515
		c3.068-0.9,5.458-2.992,8.169-4.593c-0.124-0.162-0.249-0.323-0.373-0.484c-1.421,1.264-3.166,2.299-4.697,3.436
		c-1.148,0.853-2.507,1.375-3.44,2.482c-0.215,0.256,0.06,0.682,0.374,0.484c1.77-1.114,3.69-1.949,5.441-3.095
		c1.785-1.17,3.396-2.454,5.285-3.48c-0.124-0.161-0.249-0.322-0.374-0.484c-2.699,3.196-7.079,4.992-10.499,7.308
		c-0.333,0.227-0.048,0.696,0.311,0.532c4.161-1.889,7.822-4.293,11.671-6.739c-0.103-0.177-0.207-0.355-0.311-0.532
		c-3.794,2.897-7.726,5.701-11.794,8.179c-0.3,0.182-0.104,0.651,0.237,0.562c4.509-1.173,7.48-5.327,11.671-7.027
		c-0.117-0.151-0.233-0.302-0.349-0.453c-1.037,1.631-3.422,3.02-4.959,4.204c-2.049,1.581-4.336,2.829-6.478,4.275
		c-0.327,0.22-0.038,0.731,0.311,0.531c4.285-2.445,7.977-5.788,12.37-8.054c-0.125-0.162-0.249-0.323-0.373-0.484
		c-3.635,3.182-8.047,5.298-11.63,8.547c-0.223,0.203,0.009,0.621,0.3,0.516c2.331-0.835,4.489-1.943,6.503-3.391
		c2.065-1.483,3.626-3.453,5.94-4.613c-0.125-0.161-0.25-0.323-0.374-0.484c-1.713,1.482-3.576,2.738-5.256,4.265
		c-1.673,1.522-3.67,2.689-5.306,4.2c-0.224,0.207,0.007,0.613,0.3,0.516c2.146-0.708,4.02-2.22,5.892-3.453
		c2.299-1.516,4.44-3.273,6.573-5.009c-0.145-0.146-0.291-0.291-0.436-0.436c-3.157,2.961-6.452,5.942-10.088,8.295
		c-0.34,0.22-0.046,0.691,0.311,0.531c4.019-1.801,7.283-5.323,10.707-8.021c-0.162-0.124-0.323-0.249-0.485-0.374
		c-1.003,1.345-2.515,2.461-3.65,3.719c-1.309,1.448-2.793,2.751-4.232,4.068c-0.26,0.237,0.076,0.664,0.374,0.483
		c3.307-2.009,5.774-4.38,8.446-7.158c-0.161-0.125-0.323-0.249-0.484-0.374c-1.946,2.651-4.131,5.044-6.753,7.04
		c0.125,0.161,0.25,0.322,0.374,0.484c2.595-2.124,4.871-4.757,7.664-6.609c-0.141-0.141-0.281-0.281-0.422-0.422
		c-1.689,2.237-4.05,3.975-5.63,6.246c-0.197,0.284,0.171,0.53,0.422,0.422c1.952-0.842,3.838-2.408,5.323-3.91
		c-0.162-0.125-0.323-0.249-0.484-0.374c-0.994,1.541-2.227,2.699-3.363,4.088c-0.211,0.259,0.054,0.675,0.374,0.484
		c1.077-0.639,2.044-1.309,2.898-2.227c-0.162-0.124-0.323-0.249-0.484-0.373c-0.425,0.576-0.861,1.145-1.308,1.705
		c-0.18,0.228-0.023,0.602,0.3,0.515c0.546-0.147,0.439-0.093,0.896-0.401c0.327-0.222,0.019-0.755-0.311-0.532
		c-0.25,0.113-0.499,0.227-0.748,0.339c0.099,0.172,0.2,0.344,0.299,0.515c0.483-0.613,0.974-1.178,1.405-1.829
		c0.194-0.293-0.247-0.628-0.485-0.373c-0.813,0.875-1.753,1.525-2.773,2.13c0.125,0.161,0.249,0.322,0.374,0.484
		c1.169-1.431,2.445-2.641,3.46-4.213c0.191-0.299-0.241-0.621-0.485-0.374c-1.476,1.493-3.264,2.979-5.198,3.814
		c0.141,0.142,0.281,0.281,0.422,0.422c1.574-2.264,3.946-4.016,5.63-6.247c0.188-0.249-0.175-0.586-0.422-0.421
		c-2.846,1.89-5.146,4.543-7.789,6.705c-0.27,0.222,0.096,0.696,0.374,0.484c2.706-2.06,4.965-4.526,6.974-7.261
		c0.209-0.287-0.247-0.621-0.485-0.373c-2.616,2.72-5.069,5.086-8.321,7.062c0.125,0.16,0.249,0.322,0.374,0.482
		c1.445-1.322,2.875-2.655,4.233-4.068c1.212-1.261,2.708-2.451,3.747-3.842c0.228-0.305-0.234-0.571-0.484-0.374
		c-3.362,2.649-6.652,6.165-10.581,7.925c0.104,0.177,0.208,0.354,0.311,0.531c3.696-2.391,7.007-5.383,10.213-8.39
		c0.295-0.277-0.134-0.682-0.436-0.436c-2.098,1.708-4.214,3.386-6.447,4.913c-1.776,1.215-3.689,2.713-5.746,3.392
		c0.1,0.172,0.2,0.343,0.3,0.515c1.436-1.326,3.234-2.34,4.711-3.659c1.889-1.688,3.938-3.153,5.851-4.807
		c0.278-0.241-0.076-0.633-0.374-0.484c-1.837,0.921-3.287,2.284-4.788,3.666C15.18,20.394,12.5,21.745,9.8,22.713
		c0.1,0.171,0.2,0.344,0.3,0.516c3.582-3.25,7.994-5.366,11.63-8.549c0.274-0.24-0.075-0.638-0.374-0.483
		c-4.394,2.267-8.085,5.61-12.37,8.055c0.104,0.177,0.208,0.354,0.311,0.531c2.374-1.602,4.853-3.021,7.125-4.772
		c1.51-1.166,3.487-2.281,4.534-3.927c0.136-0.213-0.092-0.556-0.348-0.453c-4.184,1.697-7.172,5.857-11.671,7.027
		c0.079,0.188,0.158,0.377,0.237,0.564c4.092-2.491,7.981-5.267,11.794-8.179c0.306-0.234,0.034-0.751-0.311-0.532
		c-3.85,2.446-7.511,4.851-11.671,6.739c0.104,0.178,0.208,0.355,0.311,0.532c3.47-2.35,7.878-4.153,10.624-7.404
		c0.222-0.263-0.055-0.658-0.374-0.484c-1.886,1.026-3.569,2.198-5.285,3.48c-1.665,1.244-3.684,1.99-5.441,3.096
		c0.124,0.161,0.249,0.322,0.374,0.484c1.165-1.383,3.243-2.32,4.7-3.425c1.125-0.853,2.383-1.556,3.437-2.493
		c0.266-0.237-0.077-0.66-0.374-0.484c-2.663,1.572-5.005,3.646-8.022,4.531c0.1,0.172,0.2,0.343,0.3,0.516
		c2.325-1.943,5.195-3.315,7.274-5.549c0.235-0.252-0.066-0.667-0.374-0.483C13.77,12.969,12,14.537,9.184,15.11
		c0.099,0.172,0.2,0.343,0.3,0.515c1.915-1.55,4.399-2.648,5.884-4.665c0.153-0.209-0.104-0.555-0.348-0.453
		c-2.048,0.854-3.911,2.064-5.959,2.918c0.1,0.172,0.2,0.343,0.3,0.515c1.36-1.182,2.838-2.215,4.15-3.452
		c0.221-0.208-0.005-0.613-0.3-0.515c-1.09,0.362-1.973,0.949-2.95,1.552C9.922,11.733,10.231,12.266,10.572,12.057L10.572,12.057z"
		/>
</g>
</svg>
